<?xml version="1.0" standalone="no"?><svg xmlns="http://www.w3.org/2000/svg" viewBox="0 0 1440 320"><path fill="#273036" fill-opacity="0.3" d="M0,320L16,282.7C32,245,64,171,96,138.7C128,107,160,117,192,128C224,139,256,149,288,170.7C320,192,352,224,384,245.3C416,267,448,277,480,245.3C512,213,544,139,576,133.3C608,128,640,192,672,208C704,224,736,192,768,160C800,128,832,96,864,106.7C896,117,928,171,960,192C992,213,1024,203,1056,197.3C1088,192,1120,192,1152,208C1184,224,1216,256,1248,272C1280,288,1312,288,1344,261.3C1376,235,1408,181,1424,154.7L1440,128L1440,320L1424,320C1408,320,1376,320,1344,320C1312,320,1280,320,1248,320C1216,320,1184,320,1152,320C1120,320,1088,320,1056,320C1024,320,992,320,960,320C928,320,896,320,864,320C832,320,800,320,768,320C736,320,704,320,672,320C640,320,608,320,576,320C544,320,512,320,480,320C448,320,416,320,384,320C352,320,320,320,288,320C256,320,224,320,192,320C160,320,128,320,96,320C64,320,32,320,16,320L0,320Z"></path></svg>